#!OML:ASF F:\VICON\USERDATA\Patient Classification 1\PLAYGROUND\JustinFriday\JustinFriday.ASF
:FULLY-SPECIFIED
:DEGREES
3009
root 12.0883 17.7762 6.77623 -4.50776 44.3558 -3.30582
lowerback 19.5158 4.43287 2.25222
upperback 1.92705 6.43243 0.584891
thorax -8.61469 3.03505 -2.33385
lowerneck 11.7101 -17.0695 -11.0473
upperneck -13.4946 -22.4964 20.6528
head -2.1358 -12.0948 8.53183
rclavicle -1.21607e-013 3.57812e-015
rhumerus -24.0194 3.38383 -78.5869
rradius 37.333
rwrist -10.4552
rhand -11.7305 -21.1154
rfingers 7.12502
rthumb 14.3167 -50.6018
lclavicle -1.21607e-013 3.57812e-015
lhumerus -59.8279 42.9819 34.1284
lradius 56.2927
lwrist 39.0192
lhand -32.0365 7.80929
lfingers 7.12502
lthumb -5.28393 37.7234
rfemur -7.19348 -13.2986 23.376
rtibia 40.6152
rfoot -21.054 -20.1101
rtoes 10.7638
lfemur -22.1109 -4.92285 -9.0643
ltibia 63.1292
lfoot -6.85269 -16.9272
ltoes -11.1779
3010
root 12.1148 17.8275 6.8165 -4.03412 44.4771 -2.96244
lowerback 19.4297 4.33167 1.95672
upperback 1.84419 6.23444 0.583088
thorax -8.69897 2.94719 -2.11837
lowerneck 11.5593 -17.1842 -10.9398
upperneck -13.5286 -22.6501 20.3442
head -2.1515 -12.1486 8.40933
rclavicle -7.92902e-014 1.74931e-014
rhumerus -23.5855 3.31094 -78.898
rradius 35.9949
rwrist -10.0663
rhand -11.7207 -20.705
rfingers 7.12502
rthumb 14.3261 -50.1908
lclavicle -7.92902e-014 1.74931e-014
lhumerus -58.6683 42.2664 35.9505
lradius 52.566
lwrist 37.2234
lhand -30.7878 5.21825
lfingers 7.12502
lthumb -4.07822 35.159
rfemur -6.73597 -12.9415 23.1857
rtibia 39.5205
rfoot -20.9433 -20.0952
rtoes 12.0268
lfemur -22.4379 -4.08287 -9.51739
ltibia 62.4995
lfoot -7.56007 -15.9442
ltoes -12.1995
3011
root 12.1464 17.913 6.86366 -3.43585 44.7059 -2.56486
lowerback 19.0577 4.17605 1.58723
upperback 1.87706 5.94583 0.615102
thorax -8.51214 2.82918 -1.77185
lowerneck 11.1926 -17.2693 -10.8614
upperneck -13.4999 -22.7521 20.1277
head -2.10676 -12.173 8.29011
rclavicle 2.67862e-014 -3.57812e-015
rhumerus -22.8263 3.21126 -79.1494
rradius 34.5408
rwrist -9.51526
rhand -13.2058 -19.9081
rfingers 7.12502
rthumb 12.8948 -49.4897
lclavicle 2.67862e-014 -3.57812e-015
lhumerus -57.6379 42.187 37.4959
lradius 48.4934
lwrist 34.2034
lhand -29.5582 1.31076
lfingers 7.12502
lthumb -2.89082 31.2709
rfemur -6.21632 -12.8103 22.9167
rtibia 38.2619
rfoot -20.9129 -19.8573
rtoes 14.6332
lfemur -22.734 -3.30931 -10.0683
ltibia 61.5298
lfoot -8.15271 -15.114
ltoes -13.271
3012
root 12.1745 17.9227 6.89393 -2.95048 44.8954 -2.24266
lowerback 18.8825 4.00366 1.32753
upperback 1.83024 5.66241 0.622196
thorax -8.50232 2.70263 -1.53627
lowerneck 10.9066 -17.2954 -10.9603
upperneck -13.2813 -22.8221 19.9728
head -1.99525 -12.1799 8.20459
rclavicle -5.64051e-014 3.95581e-014
rhumerus -22.2548 3.44159 -79.5098
rradius 33.2361
rwrist -9.45501
rhand -14.1824 -20.0371
rfingers 7.12502
rthumb 11.9532 -49.6758
lclavicle -5.64051e-014 3.95581e-014
lhumerus -56.6933 42.0401 38.8047
lradius 44.4407
lwrist 30.4246
lhand -28.1233 -2.28848
lfingers 7.12502
lthumb -1.50504 27.686
rfemur -5.83741 -12.7069 22.6955
rtibia 37.3032
rfoot -20.8106 -19.66
rtoes 16.2726
lfemur -23.2163 -2.46125 -10.5475
ltibia 60.77
lfoot -8.41375 -14.5004
ltoes -12.6674
3013
root 12.2018 17.9698 6.93542 -3.03387 45.0712 -2.61572
lowerback 18.9813 3.75205 1.55728
upperback 1.6105 5.388 0.673675
thorax -8.78852 2.55441 -1.55746
lowerneck 10.9456 -17.2754 -11.0984
upperneck -13.0123 -22.8597 19.8381
head -1.91893 -12.1828 8.16487
rclavicle -4.98453e-014 7.7526e-015
rhumerus -21.9716 3.52248 -80.0668
rradius 31.9323
rwrist -9.22633
rhand -13.8134 -20.7856
rfingers 7.12502
rthumb 12.309 -50.4033
lclavicle -4.98453e-014 7.7526e-015
lhumerus -55.6386 41.2034 40.1352
lradius 40.5055
lwrist 26.2253
lhand -27.1456 -4.70948
lfingers 7.12502
lthumb -0.560668 25.2695
rfemur -5.23877 -12.6013 23.0894
rtibia 36.1413
rfoot -20.3269 -19.9353
rtoes 16.2589
lfemur -23.3851 -1.54318 -10.4199
ltibia 59.6747
lfoot -8.40775 -13.9883
ltoes -11.2998
3014
root 12.2332 17.9738 6.97594 -3.19885 45.238 -3.16139
lowerback 18.7803 3.48657 1.79893
upperback 1.48111 5.09211 0.735848
thorax -8.81316 2.40339 -1.54146
lowerneck 11.0094 -17.2607 -11.0377
upperneck -12.8833 -22.8489 19.815
head -1.90343 -12.1795 8.15091
rclavicle 1.15419e-013 -1.49089e-014
rhumerus -21.4653 3.18703 -80.6694
rradius 30.4195
rwrist -8.36
rhand -13.3507 -21.0102
rfingers 7.12502
rthumb 12.7551 -50.6006
lclavicle 1.15419e-013 -1.49089e-014
lhumerus -54.5596 40.4089 41.4346
lradius 36.8317
lwrist 21.0075
lhand -25.943 -6.04335
lfingers 7.12502
lthumb 0.600819 23.9355
rfemur -4.84557 -12.512 23.5932
rtibia 35.2526
rfoot -20.0503 -20.1832
rtoes 16.1609
lfemur -23.6892 -0.947969 -10.1859
ltibia 58.7108
lfoot -8.79555 -13.1861
ltoes -11.6135
3015
root 12.2708 18.0229 7.02497 -2.90823 45.3705 -3.12762
lowerback 18.3347 3.31219 1.54076
upperback 1.48023 4.80618 0.813159
thorax -8.60549 2.28328 -1.2117
lowerneck 10.8546 -17.2347 -10.869
upperneck -12.7728 -22.8102 19.5182
head -1.91191 -12.1404 8.02992
rclavicle 6.02815e-014 -2.10712e-014
rhumerus -20.7977 2.94587 -81.0233
rradius 28.9503
rwrist -7.58594
rhand -13.3722 -20.9414
rfingers 7.12502
rthumb 12.7344 -50.5331
lclavicle 6.02815e-014 -2.10712e-014
lhumerus -53.7415 40.1553 42.6522
lradius 33.5085
lwrist 14.4827
lhand -24.6753 -6.987
lfingers 7.12502
lthumb 1.8252 22.9849
rfemur -4.37702 -12.3329 23.6362
rtibia 34.2019
rfoot -19.8178 -20.4075
rtoes 16.1499
lfemur -23.8019 -0.0225931 -10.4533
ltibia 57.363
lfoot -9.10912 -12.6902
ltoes -12.5334
